# xmcd
#
# Track frame offsets:
#	150
#	13515
#	26527
#	43417
#	60122
#	77850
#	91880
#	108895
#
# Disc length: 1634 seconds
#
# Revision: 1
# Processed by: cddbd v1.4PL0 Copyright (c) Steve Scherf et al.
# Submitted via: audiograbber 1.80
#
DISCID=54066008
DTITLE=Hems Harlem - Gambling and Playing
DYEAR=1900
DGENRE=
TTITLE0=I just wanna make love to you
TTITLE1=I like to play
TTITLE2=I like to gamble
TTITLE3=Let the good time roll
TTITLE4=When things go wrong
TTITLE5=Tulsa time
TTITLE6=All your love
TTITLE7=Another man
EXTD=
EXTT0=
EXTT1=
EXTT2=
EXTT3=
EXTT4=
EXTT5=
EXTT6=
EXTT7=
PLAYORDER=
